<?xml version="1.0" encoding="utf-8"?>
<svg viewBox="0 0 100 105" xmlns="http://www.w3.org/2000/svg">
  <path d="M 50.219 21.694 C 57.697 21.683 61.646 23.313 63.409 23.984 C 65.336 21.172 84.191 -2.652 91.906 0.244 C 99.111 3.602 91.973 38.434 92.519 37.896 C 109.544 66.444 98.355 104.613 50.219 105.001 C 50.145 105 50.072 105 49.999 104.999 C 49.926 105 49.854 105 49.78 105.001 C 1.644 104.613 -9.545 66.444 7.48 37.896 C 8.026 38.434 0.887 3.602 8.093 0.244 C 15.808 -2.652 34.663 21.172 36.59 23.984 C 38.353 23.313 42.302 21.683 49.78 21.694 C 49.854 21.694 50.145 21.694 50.219 21.694 Z" style="fill: rgb(245, 158, 11);" transform="matrix(1, 0, 0, 1, 2.842170943040401e-14, 7.105427357601002e-15)"/>
</svg>