<?xml version="1.0" encoding="utf-8"?>
<svg viewBox="0 0 360 110" xmlns="http://www.w3.org/2000/svg">
  <path d="M 119.807 16.801 C 120.74 16.801 121.724 17.051 122.757 17.551 C 123.79 18.051 124.574 18.701 125.107 19.501 L 149.407 56.901 L 144.407 56.701 L 169.307 19.501 C 170.574 17.701 172.207 16.801 174.207 16.801 C 175.807 16.801 177.24 17.368 178.507 18.501 C 179.774 19.635 180.407 21.101 180.407 22.901 L 180.407 80.801 C 180.407 82.535 179.84 83.985 178.707 85.151 C 177.574 86.318 176.074 86.901 174.207 86.901 C 172.34 86.901 170.824 86.318 169.657 85.151 C 168.49 83.985 167.907 82.535 167.907 80.801 L 167.907 33.701 L 171.807 34.601 L 151.407 65.701 C 150.807 66.435 150.057 67.068 149.157 67.601 C 148.257 68.135 147.34 68.368 146.407 68.301 C 145.54 68.368 144.657 68.135 143.757 67.601 C 142.857 67.068 142.107 66.435 141.507 65.701 L 122.407 35.501 L 125.007 30.201 L 125.007 80.801 C 125.007 82.535 124.474 83.985 123.407 85.151 C 122.34 86.318 120.94 86.901 119.207 86.901 C 117.54 86.901 116.174 86.318 115.107 85.151 C 114.04 83.985 113.507 82.535 113.507 80.801 L 113.507 22.901 C 113.507 21.235 114.124 19.801 115.357 18.601 C 116.59 17.401 118.074 16.801 119.807 16.801 Z M 234.104 33.401 C 235.837 33.401 237.271 33.985 238.404 35.151 C 239.537 36.318 240.104 37.768 240.104 39.501 L 240.104 82.001 C 240.104 88.135 238.954 93.018 236.654 96.651 C 234.354 100.285 231.271 102.901 227.404 104.501 C 223.537 106.101 219.204 106.901 214.404 106.901 C 212.271 106.901 210.004 106.735 207.604 106.401 C 205.204 106.068 203.237 105.568 201.704 104.901 C 199.704 104.035 198.321 102.951 197.554 101.651 C 196.787 100.351 196.637 98.968 197.104 97.501 C 197.704 95.568 198.671 94.251 200.004 93.551 C 201.337 92.851 202.737 92.768 204.204 93.301 C 205.271 93.635 206.671 94.151 208.404 94.851 C 210.137 95.551 212.137 95.901 214.404 95.901 C 217.471 95.901 220.021 95.485 222.054 94.651 C 224.087 93.818 225.621 92.418 226.654 90.451 C 227.687 88.485 228.204 85.801 228.204 82.401 L 228.204 75.701 L 230.304 78.101 C 229.171 80.301 227.754 82.118 226.054 83.551 C 224.354 84.985 222.337 86.068 220.004 86.801 C 217.671 87.535 215.004 87.901 212.004 87.901 C 208.471 87.901 205.387 87.085 202.754 85.451 C 200.121 83.818 198.071 81.551 196.604 78.651 C 195.137 75.751 194.404 72.435 194.404 68.701 L 194.404 39.501 C 194.404 37.768 194.971 36.318 196.104 35.151 C 197.237 33.985 198.671 33.401 200.404 33.401 C 202.137 33.401 203.571 33.985 204.704 35.151 C 205.837 36.318 206.404 37.768 206.404 39.501 L 206.404 65.101 C 206.404 69.435 207.354 72.485 209.254 74.251 C 211.154 76.018 213.804 76.901 217.204 76.901 C 219.537 76.901 221.504 76.451 223.104 75.551 C 224.704 74.651 225.937 73.318 226.804 71.551 C 227.671 69.785 228.104 67.635 228.104 65.101 L 228.104 39.501 C 228.104 37.768 228.671 36.318 229.804 35.151 C 230.937 33.985 232.371 33.401 234.104 33.401 Z M 296.901 32.401 C 298.634 32.401 300.068 32.968 301.201 34.101 C 302.334 35.235 302.901 36.701 302.901 38.501 L 302.901 80.801 C 302.901 82.535 302.334 83.985 301.201 85.151 C 300.068 86.318 298.634 86.901 296.901 86.901 C 295.168 86.901 293.734 86.318 292.601 85.151 C 291.468 83.985 290.901 82.535 290.901 80.801 L 290.901 75.901 L 293.101 76.801 C 293.101 77.668 292.634 78.718 291.701 79.951 C 290.768 81.185 289.501 82.401 287.901 83.601 C 286.301 84.801 284.418 85.818 282.251 86.651 C 280.084 87.485 277.734 87.901 275.201 87.901 C 270.601 87.901 266.434 86.718 262.701 84.351 C 258.968 81.985 256.018 78.718 253.851 74.551 C 251.684 70.385 250.601 65.601 250.601 60.201 C 250.601 54.735 251.684 49.918 253.851 45.751 C 256.018 41.585 258.934 38.318 262.601 35.951 C 266.268 33.585 270.334 32.401 274.801 32.401 C 277.668 32.401 280.301 32.835 282.701 33.701 C 285.101 34.568 287.184 35.668 288.951 37.001 C 290.718 38.335 292.084 39.685 293.051 41.051 C 294.018 42.418 294.501 43.568 294.501 44.501 L 290.901 45.801 L 290.901 38.501 C 290.901 36.768 291.468 35.318 292.601 34.151 C 293.734 32.985 295.168 32.401 296.901 32.401 Z M 276.701 76.901 C 279.634 76.901 282.201 76.168 284.401 74.701 C 286.601 73.235 288.318 71.235 289.551 68.701 C 290.784 66.168 291.401 63.335 291.401 60.201 C 291.401 57.001 290.784 54.135 289.551 51.601 C 288.318 49.068 286.601 47.068 284.401 45.601 C 282.201 44.135 279.634 43.401 276.701 43.401 C 273.834 43.401 271.301 44.135 269.101 45.601 C 266.901 47.068 265.184 49.068 263.951 51.601 C 262.718 54.135 262.101 57.001 262.101 60.201 C 262.101 63.335 262.718 66.168 263.951 68.701 C 265.184 71.235 266.901 73.235 269.101 74.701 C 271.301 76.168 273.834 76.901 276.701 76.901 Z M 327.195 80.801 C 327.195 82.535 326.628 83.985 325.495 85.151 C 324.362 86.318 322.928 86.901 321.195 86.901 C 319.462 86.901 318.028 86.318 316.895 85.151 C 315.762 83.985 315.195 82.535 315.195 80.801 L 315.195 39.501 C 315.195 37.768 315.762 36.318 316.895 35.151 C 318.028 33.985 319.462 33.401 321.195 33.401 C 322.928 33.401 324.362 33.985 325.495 35.151 C 326.628 36.318 327.195 37.768 327.195 39.501 L 327.195 80.801 Z M 321.095 26.901 C 318.828 26.901 317.228 26.535 316.295 25.801 C 315.362 25.068 314.895 23.768 314.895 21.901 L 314.895 20.001 C 314.895 18.068 315.412 16.751 316.445 16.051 C 317.478 15.351 319.062 15.001 321.195 15.001 C 323.528 15.001 325.162 15.368 326.095 16.101 C 327.028 16.835 327.495 18.135 327.495 20.001 L 327.495 21.901 C 327.495 23.835 326.995 25.151 325.995 25.851 C 324.995 26.551 323.362 26.901 321.095 26.901 Z M 352.498 80.801 C 352.498 82.535 351.915 83.985 350.748 85.151 C 349.581 86.318 348.131 86.901 346.398 86.901 C 344.731 86.901 343.331 86.318 342.198 85.151 C 341.065 83.985 340.498 82.535 340.498 80.801 L 340.498 19.001 C 340.498 17.268 341.081 15.818 342.248 14.651 C 343.415 13.485 344.865 12.901 346.598 12.901 C 348.331 12.901 349.748 13.485 350.848 14.651 C 351.948 15.818 352.498 17.268 352.498 19.001 L 352.498 80.801 Z" style="text-wrap-mode: nowrap; fill: rgb(245, 158, 11);" transform="matrix(1, 0, 0, 1, 0, 2.842170943040401e-14)"/>
  <path d="M 50.22 21.694 C 57.698 21.683 61.647 23.313 63.41 23.984 C 65.337 21.172 84.192 -2.652 91.907 0.244 C 99.112 3.602 91.974 38.434 92.52 37.896 C 109.545 66.444 98.356 104.613 50.22 105.001 C 50.146 105 50.073 105 50 104.999 C 49.927 105 49.855 105 49.781 105.001 C 1.645 104.613 -9.544 66.444 7.481 37.896 C 8.027 38.434 0.888 3.602 8.094 0.244 C 15.809 -2.652 34.664 21.172 36.591 23.984 C 38.354 23.313 42.303 21.683 49.781 21.694 C 49.855 21.694 50.146 21.694 50.22 21.694 Z" style="fill: rgb(245, 158, 11);" transform="matrix(1, 0, 0, 1, 0, 2.842170943040401e-14)"/>
</svg>